<?xml version="1.0" standalone="no"?>
<!DOCTYPE svg PUBLIC "-//W3C//DTD SVG 20010904//EN"
 "http://www.w3.org/TR/2001/REC-SVG-20010904/DTD/svg10.dtd">
<svg version="1.0" xmlns="http://www.w3.org/2000/svg"
 width="64.000000pt" height="64.000000pt" viewBox="0 0 64.000000 64.000000"
 preserveAspectRatio="xMidYMid meet">
<metadata>
Created by potrace 1.15, written by Peter Selinger 2001-2017
</metadata>
<g transform="translate(0.000000,64.000000) scale(0.100000,-0.100000)"
fill="#000000" stroke="none">
<path d="M88 555 c-62 -42 -87 -113 -68 -187 10 -35 36 -67 148 -180 75 -76
143 -138 151 -138 18 0 255 233 283 278 27 45 23 144 -10 189 -47 66 -165 85
-235 37 l-37 -25 -33 23 c-23 17 -49 23 -97 26 -57 3 -70 0 -102 -23z m170
-25 c27 -17 31 -24 26 -45 -9 -35 15 -33 52 6 56 59 124 75 185 44 61 -32 87
-121 55 -183 -8 -15 -69 -81 -135 -147 l-121 -120 -130 130 c-87 87 -133 141
-139 162 -10 36 0 95 21 120 43 53 128 68 186 33z"/>
</g>
</svg>
